<svg width="71" height="53" viewBox="0 0 71 53" fill="none" xmlns="http://www.w3.org/2000/svg">
<path d="M2 5.5C4.01 7.25 6.02 9 10.375 9C18.75 9 18.75 2 27.125 2C35.835 2 35.165 9 43.875 9C52.25 9 52.25 2 60.625 2C64.98 2 66.99 3.75 69 5.5M2 26.5C4.01 28.25 6.02 30 10.375 30C18.75 30 18.75 23 27.125 23C35.835 23 35.165 30 43.875 30C52.25 30 52.25 23 60.625 23C64.98 23 66.99 24.75 69 26.5M2 47.5C4.01 49.25 6.02 51 10.375 51C18.75 51 18.75 44 27.125 44C35.835 44 35.165 51 43.875 51C52.25 51 52.25 44 60.625 44C64.98 44 66.99 45.75 69 47.5" stroke="white" stroke-width="4" stroke-linecap="round" stroke-linejoin="round"/>
</svg>
