<svg width="86" height="62" viewBox="0 0 86 62" fill="none" xmlns="http://www.w3.org/2000/svg">
<path d="M2 6.14286C4.46 8.21429 6.92 10.2857 12.25 10.2857C22.5 10.2857 22.5 2 32.75 2C43.41 2 42.59 10.2857 53.25 10.2857C63.5 10.2857 63.5 2 73.75 2C79.08 2 81.54 4.07143 84 6.14286M2 31C4.46 33.0714 6.92 35.1429 12.25 35.1429C22.5 35.1429 22.5 26.8571 32.75 26.8571C43.41 26.8571 42.59 35.1429 53.25 35.1429C63.5 35.1429 63.5 26.8571 73.75 26.8571C79.08 26.8571 81.54 28.9286 84 31M2 55.8571C4.46 57.9286 6.92 60 12.25 60C22.5 60 22.5 51.7143 32.75 51.7143C43.41 51.7143 42.59 60 53.25 60C63.5 60 63.5 51.7143 73.75 51.7143C79.08 51.7143 81.54 53.7857 84 55.8571" stroke="white" stroke-width="4" stroke-linecap="round" stroke-linejoin="round"/>
</svg>
