<svg width="387" height="90" viewBox="0 0 387 90" fill="none" xmlns="http://www.w3.org/2000/svg">
<path d="M68.5 1H68V0.5H68.5V1ZM68.5 85.5H69V86H68.5V85.5ZM0.146454 85.8536C-0.0488281 85.6583 -0.0488281 85.3417 0.146454 85.1464L3.32843 81.9645C3.52368 81.7692 3.84027 81.7692 4.03552 81.9645C4.2308 82.1597 4.2308 82.4763 4.03552 82.6716L1.20709 85.5L4.03552 88.3284C4.2308 88.5237 4.2308 88.8403 4.03552 89.0355C3.84027 89.2308 3.52368 89.2308 3.32843 89.0355L0.146454 85.8536ZM387 1.5H68.5V0.5H387V1.5ZM69 1V85.5H68V1H69ZM68.5 86H0.5V85H68.5V86Z" fill="white"/>
</svg>
