<svg width="397" height="34" viewBox="0 0 397 34" fill="none" xmlns="http://www.w3.org/2000/svg">
<path d="M329.5 1L329.706 0.544232L329.608 0.5H329.5V1ZM396.177 31.4677C396.435 31.37 396.565 31.0814 396.468 30.8231L394.876 26.6141C394.778 26.3558 394.489 26.2257 394.231 26.3234C393.973 26.421 393.843 26.7096 393.94 26.9679L395.355 30.7092L391.614 32.1243C391.356 32.222 391.226 32.5106 391.323 32.7689C391.421 33.0272 391.71 33.1574 391.968 33.0597L396.177 31.4677ZM0 1.5H329.5V0.5H0V1.5ZM329.294 1.45577L395.794 31.4558L396.206 30.5442L329.706 0.544232L329.294 1.45577Z" fill="white"/>
</svg>
