<svg width="425" height="106" viewBox="0 0 425 106" fill="none" xmlns="http://www.w3.org/2000/svg">
<path d="M95.5 1L95.1283 0.665616L95.2773 0.5H95.5V1ZM1.5264 105.999C1.25064 106.014 1.01529 105.802 1.0007 105.526L0.763 101.033C0.748413 100.757 0.960114 100.522 1.23587 100.507C1.51166 100.492 1.74701 100.704 1.7616 100.98L1.9729 104.974L5.96732 104.763C6.24307 104.748 6.47842 104.96 6.49301 105.236C6.5076 105.512 6.2959 105.747 6.02014 105.762L1.5264 105.999ZM425 1.5H95.5V0.5H425V1.5ZM95.8717 1.33438L1.87173 105.834L1.12827 105.166L95.1283 0.665616L95.8717 1.33438Z" fill="white"/>
</svg>
