<svg width="389" height="153" viewBox="0 0 389 153" fill="none" xmlns="http://www.w3.org/2000/svg">
<path d="M59.5 1L59.0317 0.824778L59.1532 0.5H59.5V1ZM3.20724 152.455C2.95593 152.569 2.65942 152.459 2.54495 152.207L0.679871 148.112C0.56543 147.861 0.676361 147.564 0.927673 147.45C1.17899 147.335 1.47549 147.446 1.58994 147.697L3.2478 151.338L6.88806 149.68C7.13937 149.565 7.43588 149.676 7.55032 149.928C7.66479 150.179 7.55383 150.475 7.30252 150.59L3.20724 152.455ZM389 1.5H59.5V0.5H389V1.5ZM59.9683 1.17522L3.46829 152.175L2.53171 151.825L59.0317 0.824778L59.9683 1.17522Z" fill="white"/>
</svg>
