<svg width="363" height="73" viewBox="0 0 363 73" fill="none" xmlns="http://www.w3.org/2000/svg">
<path d="M317.5 0.5H318V0H317.5V0.5ZM317.5 68.5H317V69H317.5V68.5ZM362.354 68.8536C362.549 68.6583 362.549 68.3417 362.354 68.1464L359.172 64.9645C358.976 64.7692 358.66 64.7692 358.464 64.9645C358.269 65.1597 358.269 65.4763 358.464 65.6716L361.293 68.5L358.464 71.3284C358.269 71.5237 358.269 71.8403 358.464 72.0355C358.66 72.2308 358.976 72.2308 359.172 72.0355L362.354 68.8536ZM0 1H317.5V0H0V1ZM317 0.5V68.5H318V0.5H317ZM317.5 69H362V68H317.5V69Z" fill="white"/>
</svg>
