<svg width="378" height="28" viewBox="0 0 378 28" fill="none" xmlns="http://www.w3.org/2000/svg">
<path d="M336 1L336.256 0.570792L336.138 0.5H336V1ZM377.122 25.9849C377.39 25.9174 377.552 25.6456 377.485 25.3779L376.386 21.0142C376.318 20.7464 376.046 20.584 375.779 20.6515C375.511 20.7189 375.348 20.9907 375.416 21.2585L376.393 25.1373L372.514 26.1144C372.246 26.1818 372.084 26.4536 372.151 26.7214C372.219 26.9892 372.491 27.1516 372.758 27.0841L377.122 25.9849ZM0 1.5H336V0.5H0V1.5ZM335.744 1.42921L376.744 25.9292L377.256 25.0708L336.256 0.570792L335.744 1.42921Z" fill="white"/>
</svg>
