<svg width="56" height="41" viewBox="0 0 56 41" fill="none" xmlns="http://www.w3.org/2000/svg">
<path d="M2 4.64286C3.56 5.96429 5.12 7.28571 8.5 7.28571C15 7.28571 15 2 21.5 2C28.26 2 27.74 7.28571 34.5 7.28571C41 7.28571 41 2 47.5 2C50.88 2 52.44 3.32143 54 4.64286M2 20.5C3.56 21.8214 5.12 23.1429 8.5 23.1429C15 23.1429 15 17.8571 21.5 17.8571C28.26 17.8571 27.74 23.1429 34.5 23.1429C41 23.1429 41 17.8571 47.5 17.8571C50.88 17.8571 52.44 19.1786 54 20.5M2 36.3571C3.56 37.6786 5.12 39 8.5 39C15 39 15 33.7143 21.5 33.7143C28.26 33.7143 27.74 39 34.5 39C41 39 41 33.7143 47.5 33.7143C50.88 33.7143 52.44 35.0357 54 36.3571" stroke="white" stroke-width="4" stroke-linecap="round" stroke-linejoin="round"/>
</svg>
