<svg width="71" height="51" viewBox="0 0 71 51" fill="none" xmlns="http://www.w3.org/2000/svg">
<path d="M2 5.35714C4.01 7.03571 6.02 8.71429 10.375 8.71429C18.75 8.71429 18.75 2 27.125 2C35.835 2 35.165 8.71429 43.875 8.71429C52.25 8.71429 52.25 2 60.625 2C64.98 2 66.99 3.67857 69 5.35714M2 25.5C4.01 27.1786 6.02 28.8571 10.375 28.8571C18.75 28.8571 18.75 22.1429 27.125 22.1429C35.835 22.1429 35.165 28.8571 43.875 28.8571C52.25 28.8571 52.25 22.1429 60.625 22.1429C64.98 22.1429 66.99 23.8214 69 25.5M2 45.6429C4.01 47.3214 6.02 49 10.375 49C18.75 49 18.75 42.2857 27.125 42.2857C35.835 42.2857 35.165 49 43.875 49C52.25 49 52.25 42.2857 60.625 42.2857C64.98 42.2857 66.99 43.9643 69 45.6429" stroke="#CFCFCF" stroke-width="4" stroke-linecap="round" stroke-linejoin="round"/>
</svg>
